<?xml version="1.0" encoding="UTF-8"?>
<svg xmlns="http://www.w3.org/2000/svg" xmlns:xlink="http://www.w3.org/1999/xlink" width="800px" height="800px" viewBox="0 0 800 800" version="1.1">
<g id="surface1">
<path style=" stroke:none;fill-rule:nonzero;fill:rgb(0%,0%,0%);fill-opacity:1;" d="M 123.132812 201.933594 C 121.265625 203.199219 119.464844 205 118.535156 206.800781 L 117 209.667969 L 117 478.332031 L 118.535156 481.132812 C 119.332031 482.734375 121.265625 484.800781 122.800781 485.800781 L 125.597656 487.667969 L 170.199219 487.867188 C 203.535156 488 215.132812 488.199219 215.867188 488.800781 C 216.402344 489.265625 217.933594 491.265625 219.332031 493.332031 L 221.867188 497.066406 L 202.535156 525.734375 L 183.265625 554.332031 L 255.265625 554.535156 L 327.265625 554.667969 L 327.464844 572.199219 C 327.667969 588.535156 327.734375 589.867188 329.132812 592.800781 C 330.199219 595.066406 331.464844 596.535156 333.734375 598 L 336.933594 600 L 412.800781 600 C 486.132812 600 488.800781 599.933594 491.199219 598.734375 C 494.332031 597.132812 496.332031 595 497.667969 591.867188 C 498.464844 589.800781 498.667969 586.199219 498.667969 572 L 498.667969 554.667969 L 557.667969 554.667969 C 590.132812 554.667969 616.667969 554.535156 616.667969 554.332031 C 616.667969 554.132812 608.199219 541.464844 597.933594 526.199219 C 587.597656 510.933594 579.066406 497.933594 578.933594 497.402344 C 578.800781 496.800781 579.933594 494.535156 581.535156 492.332031 L 584.402344 488.332031 L 629.332031 488 C 680.597656 487.597656 677.066406 488.066406 681 481.667969 L 683 478.464844 L 683 209.535156 L 681 206.265625 C 679.800781 204.402344 677.867188 202.402344 676.332031 201.535156 L 673.667969 200 L 549.535156 200 L 546.464844 202.066406 C 544.535156 203.332031 542.933594 205.132812 542.066406 206.933594 C 540.667969 209.667969 540.667969 210.667969 540.667969 252.535156 L 540.667969 295.332031 L 536 295.332031 L 536 284.066406 C 536 269.199219 534.867188 265.867188 528.535156 262.597656 C 526.132812 261.402344 523 261.332031 424.800781 261.332031 L 323.535156 261.332031 L 320.464844 263.402344 C 315.265625 266.800781 314.667969 268.933594 314.667969 283.199219 L 314.667969 295.332031 L 259.332031 295.332031 L 259.332031 208.867188 L 257.265625 205.800781 C 256 203.867188 254.199219 202.265625 252.402344 201.402344 C 249.597656 200 248.867188 200 187.933594 200 L 126.265625 200 Z M 378 313.667969 L 378 339.332031 L 341.332031 339.332031 L 341.332031 288 L 378 288 Z M 446.667969 334.332031 L 446.667969 380.667969 L 404.667969 380.667969 L 404.667969 288 L 446.667969 288 Z M 508.667969 334.332031 L 508.667969 380.667969 L 474 380.667969 L 474 288 L 508.667969 288 Z M 374.667969 394 L 374.667969 421.332031 L 291.332031 421.332031 L 291.332031 366.667969 L 374.667969 366.667969 Z M 264.800781 416 L 265 439.332031 L 259.332031 439.332031 L 259.332031 392.667969 L 264.597656 392.667969 Z M 540.667969 416 L 540.667969 439.332031 L 530.667969 439.332031 C 525.199219 439.332031 520.667969 439.132812 520.667969 438.933594 C 520.667969 438.667969 524 429.332031 528.066406 418.132812 C 532.132812 406.933594 535.667969 396.597656 535.867188 395.199219 C 536.132812 392.867188 536.332031 392.667969 538.402344 392.667969 L 540.667969 392.667969 Z M 501.332031 412.464844 C 500.265625 415.332031 497.667969 422.535156 495.535156 428.464844 L 491.667969 439.332031 L 401.132812 439.332031 L 401.597656 436.800781 C 401.800781 435.464844 402 428.265625 402 420.800781 L 402 407.332031 L 503.265625 407.332031 Z M 517.332031 450 C 520.800781 451.800781 522.265625 454.597656 521.800781 458.933594 C 521.535156 461.667969 521.066406 462.597656 519.132812 464.402344 C 512.132812 470.867188 499.933594 465.332031 501.597656 456.402344 C 502.867188 449.867188 510.734375 446.667969 517.332031 450 Z M 273.199219 458.066406 C 277.464844 459.464844 285.332031 464.265625 285.332031 465.464844 C 285.332031 465.800781 283.332031 468.597656 280.933594 471.667969 L 276.535156 477.199219 L 272 474.867188 C 268.199219 472.867188 266.800781 472.464844 263.066406 472.464844 C 258.066406 472.402344 256 473.667969 256 476.734375 C 256 479.199219 256.867188 479.734375 268.667969 484.402344 C 277.402344 487.867188 278.667969 488.597656 282 491.933594 C 286.265625 496.199219 287.332031 499 287.332031 505.402344 C 287.265625 512.734375 284.402344 518.199219 278.402344 522.332031 C 267.265625 530 248.066406 528.667969 236.535156 519.535156 L 234.066406 517.535156 L 239.132812 511.464844 C 241.933594 508.066406 244.464844 505.332031 244.867188 505.332031 C 245.265625 505.332031 246.933594 506.199219 248.597656 507.265625 C 253.132812 510.132812 258.066406 511.535156 262.332031 511.199219 C 264.265625 511 266.402344 510.535156 266.933594 510.066406 C 268.199219 509 268.332031 505.132812 267.199219 504.132812 C 266.734375 503.800781 261.867188 501.597656 256.464844 499.332031 C 248.535156 496 245.867188 494.464844 243 491.867188 C 238.265625 487.535156 236.402344 482.933594 236.867188 476.597656 C 237.867188 461.199219 255.535156 452.265625 273.199219 458.066406 Z M 492.667969 465.332031 L 492.667969 473.332031 L 466.667969 473.332031 L 466.667969 485.332031 L 477.867188 485.464844 L 489 485.667969 L 489.199219 493.464844 L 489.402344 501.332031 L 466.667969 501.332031 L 466.667969 526 L 447.332031 526 L 447.332031 457.332031 L 492.667969 457.332031 Z M 314 466.332031 L 314 473.332031 L 326 473.332031 L 326 488 L 314 488 L 314 497.597656 C 314 511.199219 314.867188 512.933594 321.535156 512.597656 L 325 512.402344 L 326.402344 518.667969 C 327.199219 522.132812 327.734375 525.199219 327.597656 525.402344 C 327.066406 526.402344 318.933594 527.464844 313.535156 527.199219 C 306.535156 526.867188 302.933594 525.265625 299.535156 520.800781 C 296.066406 516.199219 295.332031 512.667969 295.332031 499.597656 L 295.332031 488.066406 L 291.867188 487.867188 L 288.332031 487.667969 L 287.933594 474.066406 L 291.132812 473.667969 C 292.867188 473.464844 294.800781 473.199219 295.332031 473.132812 C 296.066406 473 296.597656 471.199219 297.402344 466.332031 C 298 462.667969 298.535156 459.597656 298.597656 459.464844 C 298.597656 459.402344 302.132812 459.332031 306.332031 459.332031 L 314 459.332031 Z M 553.867188 466.464844 L 554.066406 473.332031 L 566 473.332031 L 566 488 L 553.933594 488 L 554.132812 499.066406 C 554.332031 509.933594 554.332031 510.132812 556 511.464844 C 557.332031 512.535156 558.332031 512.734375 561.132812 512.535156 C 563.933594 512.265625 564.734375 512.464844 565 513.265625 C 565.535156 515.066406 567.332031 524 567.332031 524.933594 C 567.332031 526.132812 561 527.332031 555 527.332031 C 545.933594 527.332031 540.597656 524.402344 537.464844 517.800781 C 535.464844 513.535156 534.667969 507.734375 534.667969 497.132812 L 534.667969 488 L 528 488 L 528 474.132812 L 530.066406 473.734375 C 531.199219 473.535156 533 473.332031 534.066406 473.332031 C 535.667969 473.332031 536 473 536.265625 471.132812 C 537.597656 463.332031 538.132812 460.265625 538.464844 459.800781 C 538.597656 459.535156 542.132812 459.402344 546.199219 459.464844 L 553.667969 459.667969 Z M 366.332031 473.933594 C 368.199219 474.734375 370.800781 476.464844 372.132812 477.800781 C 377.402344 482.933594 378.667969 489.402344 378.667969 511.800781 L 378.667969 526 L 362.667969 526 L 362.265625 524 C 362 522.867188 361.667969 522 361.402344 522 C 361.199219 522 359.867188 522.734375 358.464844 523.734375 C 347.597656 531.066406 334.066406 526.867188 331.332031 515.265625 C 329.734375 508.667969 332.066406 502 337.265625 498.402344 C 340.867188 495.867188 347.199219 493.667969 353.667969 492.597656 C 356.597656 492.132812 359.066406 491.667969 359.199219 491.597656 C 359.265625 491.535156 359 490.734375 358.597656 489.800781 C 356.933594 486.066406 351.332031 485.867188 343.332031 489.265625 L 338.867188 491.132812 L 335.800781 485.332031 C 334.066406 482.132812 332.667969 479.332031 332.667969 479.066406 C 332.667969 478.199219 342.734375 473.933594 346.933594 472.933594 C 352.933594 471.597656 362.199219 472.066406 366.332031 473.933594 Z M 406.332031 483.132812 C 411 498 411.199219 498.734375 412.066406 502.867188 C 412.535156 504.933594 413 506.535156 413.132812 506.402344 C 413.265625 506.265625 414.265625 502.597656 415.265625 498.265625 C 416.332031 493.867188 418.132812 486.535156 419.332031 481.800781 L 421.464844 473.332031 L 430.402344 473.332031 C 435.332031 473.332031 439.332031 473.597656 439.332031 473.933594 C 439.332031 475.734375 420.867188 528.402344 418.867188 532.132812 C 414.265625 540.933594 409.066406 544.933594 400.933594 545.734375 C 395.332031 546.332031 389.332031 545.535156 389.332031 544.265625 C 389.332031 543.667969 390 540.464844 390.734375 537 L 392.199219 530.800781 L 395.734375 531.132812 C 399.132812 531.464844 399.402344 531.402344 401.667969 529.132812 C 403.132812 527.667969 404 526.199219 404 525 C 404 524.066406 399.667969 512.265625 394.332031 498.734375 C 389 485.265625 384.667969 474.066406 384.667969 473.800781 C 384.667969 473.535156 388.867188 473.332031 393.933594 473.332031 L 403.265625 473.332031 Z M 521.332031 499.667969 L 521.332031 526 L 502 526 L 502 500.132812 C 502 485.867188 502.199219 474 502.464844 473.800781 C 502.667969 473.535156 507.066406 473.332031 512.132812 473.332031 L 521.332031 473.332031 Z M 471.867188 564.132812 L 472.066406 573.332031 L 354.667969 573.332031 L 354.667969 554.667969 L 413.199219 554.800781 L 471.667969 555 Z M 471.867188 564.132812 "/>
<path style=" stroke:none;fill-rule:nonzero;fill:rgb(0%,0%,0%);fill-opacity:1;" d="M 354.066406 504.265625 C 351.734375 505.066406 348.667969 508.132812 348.667969 509.597656 C 348.667969 513.066406 354.535156 514.265625 357.597656 511.402344 C 359 510.066406 359.332031 509.132812 359.332031 506.535156 C 359.332031 503.667969 359.199219 503.332031 357.867188 503.402344 C 357 503.402344 355.332031 503.800781 354.066406 504.265625 Z M 354.066406 504.265625 "/>
</g>
</svg>
